#!OML:ASF F:\VICON\USERDATA\INSTALL\rory3\rory3.ASF
:FULLY-SPECIFIED
:DEGREES
54
root 0.4273408746770947 17.7767661599239 14.712906082672044 -1.858062281601336 -3.8555831248602876 -4.63919541513258
lfemur -23.54438066108218 -2.7784877007225646 -16.534146641356756
ltibia 25.29254227754625
lfoot -4.752068687679575 -2.9608752928983684
ltoes -6.789410803862252
rfemur 10.592552371609546 5.699647278632085 29.864289582957923
rtibia 41.22754384051334
rfoot -3.467920176130379 2.4153122332129247
rtoes -0.47027386496469026
lowerback 9.122375908725772 2.6504456743041134 4.955550958335222
upperback 0.1613362761162025 4.244753690987068 1.3250669811413411
thorax -4.833915817569766 2.0582733770544683 -1.8502187124034446
lowerneck -16.628271813099403 -3.1609543616315467 -1.5314664421892492
upperneck 20.67508177184268 -4.321883292244144 1.368592215640959
head 9.329487081385766 -1.979443616150838 0.19109430400178448
lclavicle -1.9532406168969313e-15 9.067692338774983e-16
lhumerus -38.90125265489594 8.227551221691783 80.42795604895358
lradius 17.47736886481952
lwrist -1.1819729794305305
lhand -25.93149954154716 24.046285789694053
lfingers 7.12502
lthumb 0.7230750591222657 54.340924846257195
rclavicle -1.953240617101462e-15 9.06769233689577e-16
rhumerus -25.88360143584998 -15.50193083668124 -80.58459425743239
rradius 28.145472789182804
rwrist 4.4891644055108015
rhand -17.864597809245858 24.090125011268885
rfingers 7.12502
rthumb 8.190885431697463 -6.311529711121327
55
root 0.5260778363820241 17.86767854030045 15.175423596295264 -2.7302534579145905 -3.9888770963197233 -3.336620276136915
lfemur -21.11648307325587 -2.2134369265167715 -18.958045128240318
ltibia 27.734718303737356
lfoot -5.680528366775257 -2.2533035609425784
ltoes -3.392440735466899
rfemur 6.046561933251304 5.08612893833354 27.412668306725244
rtibia 50.383076146808094
rfoot 6.488816957371014 3.3888046056220773
rtoes 6.364735752591156
lowerback 9.38389863594706 2.7066770266111555 3.7058194045578334
upperback 0.2369768522283834 4.101023167374627 0.899099537388342
thorax -4.89164694579355 2.00452884687825 -1.4916897159206357
lowerneck -16.4676895863386 -3.1711906054017645 -1.6469562955366461
upperneck 20.758479455634895 -4.335221721154994 1.444595609455169
head 9.354606720400536 -1.984322450740589 0.23117518981757426
lclavicle -1.9532406169038342e-15 9.067692338728397e-16
lhumerus -38.79064943974174 8.123651523445195 80.417030834099
lradius 17.582680656269616
lwrist -0.7635040956969679
lhand -25.407120607992393 26.062802016246632
lfingers 7.12502
lthumb 1.0710743741839748 55.86864449938721
rclavicle -1.9532406170973473e-15 9.067692336949305e-16
rhumerus -26.45679948758358 -16.544514518724863 -80.34733883733398
rradius 27.577351662953735
rwrist 5.058890337488088
rhand -17.792466193361957 23.720917236040805
rfingers 7.12502
rthumb 8.242694809505327 -6.778473098053996
56
root 0.598217495680064 17.934696046742975 15.84442227038101 -3.282283884989108 -4.63870057644346 -1.9455033651444227
lfemur -18.044156474039212 -2.2966817536773747 -20.973808753449273
ltibia 28.0404460433268
lfoot -6.63849986006001 -1.3476470902391242
ltoes -3.282123790110365
rfemur -0.08367613527506812 4.857486010122026 24.95260571566466
rtibia 60.210308513555
rfoot 14.86160044530012 2.0199962516843257
rtoes 16.056570164875673
lowerback 9.700218078602683 2.718065556671678 2.3177399804537338
upperback 0.351566030927266 3.878589119821472 0.5208965288596179
thorax -4.9850430509359045 1.909956555897159 -1.1125944452129843
lowerneck -16.37895684147594 -3.128291763570633 -1.7757616922300214
upperneck 20.727744143040688 -4.258525865758796 1.4953557976569924
head 9.331727732767956 -1.9514995876156158 0.2733614648537294
lclavicle -1.953240616905548e-15 9.06769233872578e-16
lhumerus -38.331745947688546 7.46080461335961 80.69956725837507
lradius 18.303202182017337
lwrist 0.6187062334245974
lhand -24.60532571435656 26.831148646403193
lfingers 7.12502
lthumb 1.7290557923479384 56.3638471686625
rclavicle -1.9532406170948356e-15 9.067692336987622e-16
rhumerus -26.70410147054401 -17.293709479427594 -80.08075942888162
rradius 27.025620216669154
rwrist 5.6843702213526965
rhand -17.691551596883173 23.451379728326476
rfingers 7.12502
rthumb 8.321867959636462 -7.070414617136918
57
root 0.6715987941130213 17.979936995712947 16.54175606864152 -3.6532117849517727 -5.117218693017994 -0.7046046518109539
lfemur -14.797729392350048 -2.636217779724227 -22.75169833215952
ltibia 27.215221458627127
lfoot -7.929055557840959 0.369576628617015
ltoes -4.377534464921368
rfemur -6.235425019151406 4.4589209710391975 23.258638571514556
rtibia 68.6218670292758
rfoot 13.806307784471606 -1.1982767461370578
rtoes 17.784579055669784
lowerback 9.89209645764136 2.584003309494375 1.5043472903292248
upperback 0.4518355802142283 3.5842891106278594 0.29983482977566234
thorax -4.985713990249825 1.7904527626084465 -0.8606490690803051
lowerneck -16.371858386365247 -3.047186879254057 -1.9001475798815743
upperneck 20.725099658585794 -4.139171643053769 1.557617773038138
head 9.3278878806402 -1.8989633175110037 0.3270509520497414
lclavicle -1.953240616909702e-15 9.067692338702237e-16
lhumerus -37.710969722702664 6.680121690471162 81.07074996133069
lradius 19.169198503111488
lwrist 1.8819169356684573
lhand -26.071428627483115 23.478434765440213
lfingers 7.12502
lthumb 0.5048327749771107 53.619918451674394
rclavicle -1.95324061709777e-15 9.067692336975304e-16
rhumerus -26.974135912397504 -17.879594623321534 -79.78137653379463
rradius 26.62551291789498
rwrist 5.938976161379671
rhand -17.61212075856939 23.1861621623422
rfingers 7.12502
rthumb 8.41329026055017 -7.243500796066494
